Coordinates
version=1
nRows=12
nColumns=34
inDegrees=no

Units are S.I. units (second, meters, Newtons, ...)
If the header above contains a line with 'inDegrees', this indicates whether rotational values are in degrees (yes) or radians (no).

endheader
time	pelvis_tilt	pelvis_list	pelvis_rotation	pelvis_tx	pelvis_ty	pelvis_tz	hip_flexion_r	hip_adduction_r	hip_rotation_r	knee_angle_r	ankle_angle_r	subtalar_angle_r	mtp_angle_r	hip_flexion_l	hip_adduction_l	hip_rotation_l	knee_angle_l	ankle_angle_l	subtalar_angle_l	mtp_angle_l	lumbar_extension	lumbar_bending	lumbar_rotation	arm_flex_r	arm_add_r	arm_rot_r	elbow_flex_r	pro_sup_r	arm_flex_l	arm_add_l	arm_rot_l	elbow_flex_l	pro_sup_l
0.44	-0.0820856	-0.0503796	-0.0433449	0.422059	0.927762	-0.240736	-0.036413	0.106469	-0.388719	0.232269	0.452116	0.426346	-0.00475868	0.645998	-0.114093	-0.0753096	0.530249	0.169858	0.0651275	-0.027776	-0.0247482	0.0665105	0.0748028	0.115532	-0.229397	-0.152324	0.899194	1.65418	-0.273054	-0.074796	-0.41001	0.416063	1.8273
0.45	-0.0810065	-0.0442944	-0.0473924	0.433773	0.925959	-0.240763	-0.0506469	0.0949609	-0.404245	0.238915	0.466599	0.451455	-0.0047825	0.639375	-0.104953	-0.0914653	0.46707	0.182046	0.119319	-0.0277363	-0.0272548	0.0613368	0.0795421	0.124517	-0.232392	-0.147431	0.910365	1.65715	-0.282027	-0.0736179	-0.410677	0.406435	1.82482
0.46	-0.0797653	-0.0377484	-0.051636	0.445653	0.924103	-0.240841	-0.0645244	0.0826383	-0.417707	0.246592	0.480152	0.47114	-0.00480633	0.631013	-0.0948174	-0.108491	0.40562	0.193433	0.169873	-0.0276965	-0.0296983	0.0556999	0.0846992	0.132281	-0.235199	-0.142937	0.920697	1.66023	-0.290124	-0.0727458	-0.40977	0.396645	1.82314
0.47	-0.078302	-0.0306829	-0.0561563	0.457723	0.922223	-0.240949	-0.0781737	0.0695054	-0.428873	0.255101	0.492558	0.485382	-0.00483015	0.621114	-0.083726	-0.126304	0.347119	0.203911	0.215067	-0.0276567	-0.0320716	0.0494851	0.0902965	0.138788	-0.237744	-0.138838	0.930025	1.66335	-0.297436	-0.0721308	-0.407683	0.386963	1.82207
0.48	-0.0765445	-0.0230693	-0.0610085	0.470009	0.920347	-0.241067	-0.0917921	0.0555961	-0.437762	0.264153	0.503577	0.494755	-0.00485398	0.609949	-0.0717959	-0.144693	0.292944	0.213423	0.253609	-0.0276169	-0.0343484	0.0426066	0.0963	0.144002	-0.239937	-0.135103	0.938175	1.66642	-0.304108	-0.071718	-0.404883	0.37769	1.82139
0.49	-0.0744301	-0.0149084	-0.0662115	0.482536	0.918498	-0.241175	-0.105611	0.0409732	-0.444599	0.273391	0.512954	0.500264	-0.00487782	0.597866	-0.0592086	-0.163315	0.244518	0.221915	0.284732	-0.0275771	-0.0364636	0.0350104	0.102618	0.147882	-0.241684	-0.131678	0.944973	1.66937	-0.31033	-0.0714541	-0.401883	0.369126	1.82094
0.5	-0.07193	-0.00622112	-0.0717393	0.495334	0.916695	-0.241256	-0.119852	0.025717	-0.449752	0.28243	0.520436	0.503153	-0.00490165	0.585269	-0.0461767	-0.181718	0.203159	0.22926	0.308204	-0.0275373	-0.0383005	0.0266661	0.109104	0.150387	-0.242888	-0.12849	0.950255	1.6721	-0.316313	-0.0712936	-0.399203	0.361543	1.82059
0.51	-0.0690764	0.00296323	-0.0775191	0.508426	0.914947	-0.241297	-0.134674	0.00989911	-0.453657	0.290905	0.525789	0.504711	-0.00492549	0.572583	-0.0328871	-0.199354	0.169876	0.235156	0.324232	-0.0274975	-0.0396889	0.0175468	0.115567	0.151474	-0.243456	-0.125461	0.953871	1.67454	-0.322264	-0.0712035	-0.397328	0.355168	1.82027
0.52	-0.0660029	0.0126373	-0.0834249	0.521828	0.91325	-0.241293	-0.150158	-0.00645374	-0.456763	0.298534	0.528827	0.506124	-0.00494933	0.560191	-0.0194426	-0.215624	0.145211	0.239067	0.333323	-0.0274577	-0.0404395	0.00760483	0.121793	0.151109	-0.243305	-0.12252	0.955699	1.67662	-0.328354	-0.0711665	-0.396662	0.350151	1.81992
0.53	-0.0628275	0.0229244	-0.0892656	0.535548	0.911632	-0.24126	-0.16626	-0.023362	-0.459476	0.305172	0.529423	0.508356	-0.00497317	0.548428	-0.00584667	-0.229925	0.129149	0.240222	0.336111	-0.0274178	-0.0403372	-0.00320155	0.127564	0.149267	-0.242365	-0.119632	0.955653	1.67834	-0.334691	-0.0711841	-0.397492	0.346557	1.8195
0.54	-0.059685	0.0339358	-0.0948368	0.549582	0.910102	-0.241213	-0.182833	-0.0409261	-0.462115	0.310849	0.527513	0.512059	-0.00499701	0.537545	0.00804974	-0.241721	0.121148	0.237716	0.333225	-0.027378	-0.0392047	-0.0149792	0.132664	0.145942	-0.240582	-0.116813	0.953688	1.67972	-0.341283	-0.0712782	-0.399967	0.344358	1.81902
0.55	-0.0566827	0.0458216	-0.0999131	0.563917	0.908675	-0.241172	-0.199641	-0.059309	-0.464866	0.315803	0.523068	0.517484	-0.00502086	0.527696	0.0225103	-0.250605	0.120244	0.230699	0.325212	-0.0273382	-0.0369527	-0.0278725	0.136905	0.141144	-0.237914	-0.114152	0.949808	1.68084	-0.348029	-0.0714942	-0.404077	0.343434	1.81845
